<svg width="640" height="520" viewBox="0 0 640 520" fill="none" xmlns="http://www.w3.org/2000/svg">
  <rect width="640" height="520" rx="44" fill="#FBF2E8"/>
  <path d="M0 0H640V212C578 196 518 186 426 186C298 186 180 208 0 232V0Z" fill="#F8B9AF"/>
  <path d="M0 96C64 76 116 74 158 118C196 156 228 164 272 144C308 126 340 126 374 150C410 176 438 178 484 150C536 120 590 126 640 150V262H0V96Z" fill="#21BBB0"/>
  <path d="M0 156C70 132 142 136 198 178C232 204 266 212 320 196C372 182 420 190 468 220C512 248 576 256 640 234V314H0V156Z" fill="#0E7C8B"/>
  <circle cx="230" cy="172" r="34" fill="#FF7B50"/>
  <path d="M0 250C130 220 240 214 348 236C452 258 544 256 640 224V520H0V250Z" fill="#269947"/>
  <path d="M0 316C136 286 256 288 362 314C464 338 554 336 640 300V520H0V316Z" fill="#94CF6E"/>
  <path d="M280 520C296 464 324 422 354 388C380 358 398 332 402 298C384 296 370 300 358 314C346 328 338 340 330 350C316 366 296 378 272 378C244 378 222 366 214 348C210 338 208 330 208 320C208 286 236 258 286 242C332 228 388 230 438 248L426 278C390 264 348 262 314 272C282 282 260 300 260 320C260 326 262 332 266 336C272 344 282 348 294 348C308 348 320 342 328 330C336 320 346 306 362 292C386 272 416 264 454 266C458 354 420 418 382 458C348 492 330 510 324 520H280Z" fill="#F7DFC6"/>
  <path d="M90 520C106 454 130 404 160 370C188 336 216 310 228 278L188 294C164 332 140 362 124 398C106 434 96 476 90 520H90Z" fill="#139095"/>
  <path d="M126 520C146 446 176 394 210 356C236 326 262 294 274 260L236 270C210 308 182 338 156 370C130 402 108 454 98 520H126Z" fill="#18A3A9"/>
  <circle cx="232" cy="426" r="9" fill="#FFF8EE"/>
  <circle cx="266" cy="442" r="8" fill="#FFF8EE"/>
  <circle cx="300" cy="458" r="8" fill="#FFF8EE"/>
</svg>
