<svg width="640" height="520" viewBox="0 0 640 520" fill="none" xmlns="http://www.w3.org/2000/svg">
  <rect width="640" height="520" rx="44" fill="#F5F6EC"/>
  <path d="M0 0H640V214C582 198 522 188 430 188C300 188 182 210 0 232V0Z" fill="#F4BAAF"/>
  <path d="M0 100C62 78 114 76 158 120C198 158 230 166 272 146C308 128 338 128 372 152C408 176 438 178 482 152C532 124 586 128 640 152V260H0V100Z" fill="#21BBB2"/>
  <path d="M0 160C70 134 140 136 194 178C230 206 264 214 318 198C368 184 416 190 464 220C506 246 572 256 640 236V316H0V160Z" fill="#0E7C8C"/>
  <circle cx="228" cy="172" r="34" fill="#FF7E51"/>
  <path d="M0 252C132 220 240 214 346 236C448 258 542 256 640 224V520H0V252Z" fill="#2A9947"/>
  <path d="M0 316C136 286 254 288 360 314C462 338 552 336 640 300V520H0V316Z" fill="#94CF6D"/>
  <path d="M270 408L306 346H370L408 408L338 452L270 408Z" fill="#6BC6D8"/>
  <path d="M306 346L328 314H348L370 346H306Z" fill="#4CB1C7"/>
  <path d="M328 314L338 296L348 314H328Z" fill="#8EE2F0"/>
  <path d="M306 346L338 452L270 408L306 346Z" fill="#A4E7F3"/>
  <path d="M370 346L338 452L408 408L370 346Z" fill="#A4E7F3"/>
  <path d="M328 314L306 346L338 452L370 346L348 314H328Z" fill="#D7FBFF"/>
  <path d="M106 520C122 454 144 404 174 370C202 336 230 310 242 278L202 294C178 332 154 362 138 398C120 434 110 476 104 520H106Z" fill="#138F95"/>
  <path d="M144 520C164 448 194 396 228 356C256 324 280 292 294 258L254 268C228 308 202 338 176 370C148 404 126 454 118 520H144Z" fill="#16A2A8"/>
  <circle cx="250" cy="432" r="8" fill="#FFF8EE"/>
  <circle cx="220" cy="448" r="8" fill="#FFF8EE"/>
</svg>
