<svg width="640" height="520" viewBox="0 0 640 520" fill="none" xmlns="http://www.w3.org/2000/svg">
  <rect width="640" height="520" rx="44" fill="#FFF3F8"/>
  <circle cx="508" cy="118" r="58" fill="#FFD1E6"/>
  <rect x="156" y="206" width="328" height="188" rx="38" fill="#FFD6E7"/>
  <rect x="184" y="236" width="272" height="130" rx="26" fill="#FFF9FC"/>
  <rect x="196" y="174" width="36" height="60" rx="18" fill="#FF8DB9"/>
  <rect x="408" y="174" width="36" height="60" rx="18" fill="#FF8DB9"/>
  <path d="M266 296L308 254L350 296L308 338L266 296Z" fill="#FFB74D"/>
  <path d="M308 244L330 212L352 244H308Z" fill="#7ED0FF"/>
  <circle cx="246" cy="272" r="12" fill="#F9A8D4"/>
  <circle cx="380" cy="322" r="12" fill="#A7F3D0"/>
  <circle cx="398" cy="254" r="10" fill="#C4B5FD"/>
  <circle cx="126" cy="164" r="14" fill="#F9A8D4"/>
  <circle cx="156" cy="142" r="10" fill="#A7F3D0"/>
  <circle cx="480" cy="154" r="12" fill="#FDE68A"/>
</svg>
