<svg width="640" height="520" viewBox="0 0 640 520" fill="none" xmlns="http://www.w3.org/2000/svg">
  <rect width="640" height="520" rx="44" fill="#FDF3E8"/>
  <path d="M0 0H640V210C596 198 520 184 420 184C300 184 194 204 0 232V0Z" fill="#F8B8AF"/>
  <path d="M0 96C62 74 114 72 154 118C194 164 226 170 270 146C304 126 334 126 368 150C404 176 434 178 476 156C530 128 586 132 640 158V268H0V96Z" fill="#22B7B0"/>
  <path d="M0 154C70 124 138 136 188 176C222 204 252 210 304 194C352 180 398 188 444 220C488 250 558 258 640 232V316H0V154Z" fill="#0D7D8D"/>
  <circle cx="236" cy="170" r="34" fill="#FF7A4E"/>
  <path d="M0 248C138 212 242 208 342 230C434 250 524 250 640 220V520H0V248Z" fill="#259946"/>
  <path d="M0 306C150 278 256 280 356 304C456 328 548 326 640 290V520H0V306Z" fill="#91CE6C"/>
  <path d="M250 520C266 464 296 422 326 390C354 360 372 326 372 290C372 278 366 270 356 266C346 262 334 264 324 274C318 280 316 290 316 300C316 322 298 338 274 338C246 338 226 326 214 310C202 294 200 274 210 258C224 234 262 226 312 226C388 226 446 250 446 306C446 364 408 412 374 446C342 478 324 498 316 520H250Z" fill="#F9DFC4"/>
  <ellipse cx="388" cy="302" rx="56" ry="18" fill="#4FC8C1" fill-opacity="0.7"/>
  <path d="M72 520C90 446 118 392 148 360C178 328 204 304 214 274L172 288C150 330 130 376 118 420C106 462 100 494 96 520H72Z" fill="#128E95"/>
  <path d="M118 520C138 442 176 392 214 350C246 316 274 290 286 254L246 260C220 300 194 328 164 358C130 392 102 452 88 520H118Z" fill="#19A1A7"/>
  <circle cx="118" cy="376" r="10" fill="#FFF4E8"/>
  <circle cx="152" cy="396" r="8" fill="#FFF4E8"/>
  <circle cx="194" cy="430" r="8" fill="#FFF4E8"/>
</svg>
