<svg xmlns="http://www.w3.org/2000/svg" width="960" height="540" viewBox="0 0 960 540" role="img" aria-labelledby="title desc">
  <title id="title">Generic place image</title>
  <desc id="desc">A soft illustrated city street placeholder for places without photos.</desc>
  <defs>
    <linearGradient id="sky" x1="0" x2="1" y1="0" y2="1">
      <stop offset="0" stop-color="#dbeafe"/>
      <stop offset="1" stop-color="#f8fafc"/>
    </linearGradient>
    <linearGradient id="street" x1="0" x2="1" y1="0" y2="0">
      <stop offset="0" stop-color="#cbd5e1"/>
      <stop offset="1" stop-color="#e2e8f0"/>
    </linearGradient>
  </defs>
  <rect width="960" height="540" fill="url(#sky)"/>
  <circle cx="790" cy="104" r="56" fill="#fde68a" opacity=".95"/>
  <path d="M0 386 C160 344 266 370 426 342 C570 316 690 338 960 286 L960 540 L0 540 Z" fill="#bfdbfe"/>
  <path d="M0 424 L960 342 L960 540 L0 540 Z" fill="url(#street)"/>
  <g opacity=".94">
    <rect x="86" y="206" width="156" height="190" rx="10" fill="#ffffff"/>
    <rect x="112" y="236" width="34" height="42" rx="4" fill="#93c5fd"/>
    <rect x="181" y="236" width="34" height="42" rx="4" fill="#93c5fd"/>
    <rect x="128" y="318" width="74" height="78" rx="6" fill="#64748b"/>
    <rect x="70" y="184" width="188" height="34" rx="8" fill="#4f46e5"/>
  </g>
  <g opacity=".92">
    <rect x="316" y="158" width="190" height="238" rx="12" fill="#f8fafc"/>
    <rect x="346" y="198" width="44" height="44" rx="5" fill="#7dd3fc"/>
    <rect x="430" y="198" width="44" height="44" rx="5" fill="#7dd3fc"/>
    <rect x="346" y="278" width="44" height="44" rx="5" fill="#7dd3fc"/>
    <rect x="430" y="278" width="44" height="44" rx="5" fill="#7dd3fc"/>
    <rect x="392" y="340" width="40" height="56" rx="5" fill="#475569"/>
    <rect x="300" y="136" width="222" height="34" rx="8" fill="#0ea5e9"/>
  </g>
  <g opacity=".94">
    <rect x="610" y="220" width="184" height="156" rx="14" fill="#ffffff"/>
    <rect x="634" y="250" width="136" height="48" rx="8" fill="#bae6fd"/>
    <rect x="654" y="322" width="96" height="54" rx="8" fill="#64748b"/>
    <path d="M596 226 L704 152 L810 226 Z" fill="#4f46e5"/>
  </g>
  <path d="M0 444 C196 424 316 456 476 430 C642 402 762 414 960 376 L960 540 L0 540 Z" fill="#f8fafc" opacity=".7"/>
  <text x="480" y="478" text-anchor="middle" font-family="Arial, Helvetica, sans-serif" font-size="32" font-weight="700" fill="#475569">Place photo coming soon</text>
</svg>
